<svg version="1" xmlns="http://www.w3.org/2000/svg" width="1365.333" height="1365.333" viewBox="0 0 1024.000000 1024.000000"><path d="M252 252.1C113.7 390.7.4 504.7.2 505.3c-.1.7 42.1 43.5 93.8 95.2l94.2 93.8 252.4-252.8C579.4 302.5 693 188.4 693 188 693 186.6 506.1 0 504.8.1c-.7 0-114.5 113.5-252.8 252zM573.8 405L406.2 573l140.9 141.1c131 131.3 141.1 141.1 142.7 139.6 8.2-7.5 333.8-334 334-335.1.3-1.2-280.2-281.6-281.7-281.6-.3 0-76.1 75.6-168.3 168zM299.1 680.2c-32.6 32.6-59.9 60-60.7 60.9-1.2 1.3 14.8 17.7 139.1 142.2 77.2 77.4 140.9 140.7 141.4 140.7.9 0 121.1-119.6 121.1-120.4 0-.2-63.4-63.9-140.9-141.5L358.3 621l-59.2 59.2z"/></svg>